<?xml version="1.0" standalone="no"?>
<!DOCTYPE svg PUBLIC "-//W3C//DTD SVG 20010904//EN"
 "http://www.w3.org/TR/2001/REC-SVG-20010904/DTD/svg10.dtd">
<svg version="1.0" xmlns="http://www.w3.org/2000/svg"
 width="912.000000pt" height="912.000000pt" viewBox="0 0 912.000000 912.000000"
 preserveAspectRatio="xMidYMid meet">
<metadata>
Created by potrace 1.11, written by Peter Selinger 2001-2013
</metadata>
<g transform="translate(0.000000,912.000000) scale(0.100000,-0.100000)"
fill="#000000" stroke="none">
<path d="M4310 8270 c-7 -16 -17 -30 -23 -30 -6 0 -8 -3 -4 -6 3 -3 -10 -30
-29 -59 -19 -30 -34 -59 -34 -65 0 -5 -4 -10 -10 -10 -5 0 -9 -3 -8 -7 2 -7
-51 -105 -106 -193 -12 -19 -26 -44 -32 -55 -6 -11 -79 -137 -161 -280 -83
-143 -160 -276 -171 -295 -11 -19 -35 -62 -54 -95 -19 -33 -41 -71 -49 -85 -8
-14 -18 -28 -22 -31 -5 -3 -8 -9 -8 -13 1 -3 -5 -16 -12 -29 -12 -19 -46 -78
-119 -207 -46 -81 -212 -367 -226 -390 -9 -14 -27 -45 -41 -70 -36 -67 -49
-90 -82 -145 -17 -27 -33 -58 -36 -67 -3 -10 -9 -18 -14 -18 -5 0 -9 -4 -9 -9
0 -7 -44 -86 -113 -203 -24 -41 -163 -282 -193 -335 -62 -109 -195 -340 -204
-353 -6 -8 -13 -22 -17 -30 -4 -8 -21 -37 -38 -65 -18 -27 -38 -65 -46 -83 -8
-17 -17 -32 -21 -32 -5 0 -8 -7 -8 -15 0 -8 -4 -15 -10 -15 -5 0 -9 -3 -8 -7
1 -5 -5 -19 -13 -33 -40 -64 -89 -152 -89 -161 0 -5 -4 -9 -10 -9 -5 0 -10 -5
-10 -11 0 -13 -80 -151 -93 -160 -5 -3 -7 -8 -6 -10 3 -4 -50 -98 -112 -202
-16 -26 -29 -52 -29 -57 0 -6 -4 -10 -10 -10 -5 0 -10 -5 -10 -11 0 -6 -32
-64 -70 -129 -39 -65 -70 -123 -70 -129 0 -6 -4 -11 -10 -11 -5 0 -10 -4 -10
-9 0 -4 -43 -81 -95 -170 -52 -90 -95 -165 -95 -167 0 -2 -25 -44 -55 -95 -30
-50 -55 -93 -55 -95 0 -2 -17 -32 -38 -66 -21 -35 -41 -70 -45 -78 -4 -8 -18
-33 -32 -55 -13 -22 -32 -56 -41 -75 -9 -19 -19 -37 -23 -40 -4 -3 -25 -36
-46 -75 -21 -38 -43 -73 -49 -77 -6 -4 -8 -8 -3 -8 4 0 -4 -17 -17 -37 -13
-21 -59 -99 -101 -173 -43 -74 -86 -150 -96 -167 -11 -18 -27 -48 -38 -65 -85
-150 -153 -265 -161 -278 -6 -8 -13 -22 -17 -30 -4 -8 -18 -33 -31 -55 -14
-22 -25 -41 -24 -42 1 -2 -14 -27 -33 -57 -19 -30 -35 -58 -35 -62 0 -5 -11
-24 -24 -43 -35 -53 -104 -175 -104 -185 0 -5 -4 -12 -9 -15 -12 -8 -213 -359
-213 -371 0 -6 -4 -10 -10 -10 -5 0 -10 -4 -10 -9 0 -4 -48 -91 -107 -192 -58
-101 -115 -200 -126 -219 -10 -19 -23 -39 -27 -45 -4 -5 -19 -30 -32 -55 -14
-25 -35 -62 -48 -83 l-22 -37 4330 0 c3856 0 4330 2 4328 15 -1 8 -8 21 -14
27 -7 7 -12 17 -12 24 0 7 -3 14 -7 16 -8 3 -44 66 -67 115 -6 13 -14 23 -18
23 -5 0 -8 6 -8 14 0 8 -6 21 -13 28 -7 7 -18 24 -24 38 -7 14 -26 48 -42 75
-16 28 -36 61 -44 75 -7 14 -23 41 -34 60 -236 408 -303 524 -303 530 0 4 -7
13 -15 20 -8 7 -13 16 -10 20 3 5 2 10 -3 12 -10 4 -92 146 -92 159 0 5 -3 9
-8 9 -4 0 -13 15 -21 32 -8 18 -17 35 -21 38 -4 3 -20 30 -37 60 -55 100 -86
155 -110 192 -12 21 -23 39 -23 42 0 2 -18 34 -40 70 -22 36 -40 70 -40 76 0
5 -4 10 -8 10 -4 0 -15 15 -23 33 -9 17 -47 86 -86 152 -38 66 -75 130 -82
142 -11 21 -8 24 56 54 38 18 70 33 73 33 31 6 337 191 368 222 7 8 17 14 21
14 7 0 121 85 131 98 3 4 28 25 55 47 107 86 309 300 405 429 24 34 47 63 50
66 6 6 116 177 147 230 11 19 40 73 63 120 23 47 48 97 56 112 8 14 14 33 14
41 0 9 4 17 8 19 8 3 53 119 92 236 23 69 75 276 84 332 3 19 8 46 10 60 3 14
7 45 10 70 4 25 9 70 13 100 9 66 9 514 0 585 -4 28 -10 68 -14 90 -3 22 -8
49 -9 60 -1 11 -5 31 -8 45 -3 14 -10 48 -16 75 -24 128 -89 340 -139 460 -76
181 -158 336 -257 484 -38 58 -73 112 -79 120 -5 9 -17 23 -26 31 -8 8 -20 22
-25 32 -20 37 -202 237 -273 302 -19 17 -41 38 -50 47 -9 8 -43 37 -76 65 -33
27 -62 51 -65 54 -19 19 -91 70 -99 70 -5 0 -11 4 -13 8 -3 8 -153 112 -162
112 -2 0 -33 17 -67 38 -110 66 -262 135 -454 208 -11 4 -25 8 -31 9 -7 2 -38
12 -70 23 -33 11 -72 23 -89 28 -16 4 -34 8 -40 10 -31 9 -139 32 -185 39 -14
2 -52 8 -85 14 -221 36 -628 36 -820 1 -27 -5 -63 -11 -80 -14 -56 -8 -220
-47 -290 -68 -38 -12 -73 -23 -77 -24 -5 -1 -9 -2 -10 -4 -2 -1 -10 -3 -18 -5
-37 -7 -215 -82 -325 -136 -175 -86 -226 -116 -365 -212 l-84 -59 -21 25 c-11
15 -29 43 -40 64 -11 21 -37 66 -57 101 -21 34 -38 65 -38 67 0 3 -11 22 -23
43 -13 20 -35 57 -49 82 -79 141 -136 234 -145 237 -6 2 -16 -10 -23 -27z
m2310 -374 c19 -3 55 -8 80 -11 58 -7 84 -12 173 -31 102 -22 107 -23 177 -44
25 -8 47 -14 50 -15 15 -3 117 -39 125 -44 6 -3 15 -6 21 -7 34 -5 356 -164
374 -185 3 -3 31 -20 63 -38 31 -18 57 -37 57 -42 0 -5 6 -9 13 -9 11 0 140
-98 217 -165 40 -35 218 -213 240 -241 209 -260 342 -485 430 -729 18 -49 36
-99 41 -110 22 -51 83 -309 93 -397 3 -27 9 -69 12 -95 3 -27 7 -88 9 -138 2
-49 5 -92 6 -95 1 -3 1 -8 1 -11 0 -3 -3 -61 -7 -130 -3 -68 -7 -137 -9 -154
-2 -16 -7 -57 -11 -90 -4 -33 -9 -63 -11 -66 -2 -4 -6 -24 -10 -44 -17 -108
-90 -356 -129 -442 -8 -17 -15 -34 -15 -38 0 -11 -140 -288 -154 -305 -7 -8
-27 -39 -45 -68 -18 -30 -36 -59 -42 -65 -5 -7 -28 -37 -50 -67 -110 -153
-225 -273 -412 -435 -73 -63 -256 -187 -357 -242 -30 -16 -64 -35 -75 -41 -32
-18 -197 -93 -199 -90 0 2 -6 12 -13 23 -17 29 -113 194 -136 235 -28 50 -186
322 -197 340 -18 29 -74 126 -103 180 -17 30 -64 111 -104 179 -40 67 -73 127
-73 131 0 4 -7 13 -15 20 -8 7 -15 21 -15 30 0 10 -3 20 -8 22 -9 4 -82 126
-82 139 0 5 -4 9 -8 9 -4 0 -13 12 -19 28 -12 29 -54 104 -63 112 -3 3 -32 52
-65 110 -32 58 -73 128 -91 157 -18 28 -31 53 -28 56 2 2 -2 10 -11 17 -8 7
-15 19 -15 26 0 8 -4 14 -10 14 -5 0 -10 5 -10 11 0 12 -76 145 -98 172 -8 9
-12 17 -9 17 4 0 -4 16 -18 35 -13 20 -30 49 -37 65 -7 17 -16 30 -20 30 -5 0
-8 4 -8 8 0 8 -181 327 -241 425 -16 26 -29 50 -29 52 0 3 -22 41 -50 85 -27
44 -49 83 -49 85 -1 3 -7 15 -15 28 -43 69 -186 321 -186 327 0 4 -7 13 -15
20 -8 7 -15 21 -15 31 0 11 -4 19 -8 19 -4 0 -26 32 -47 71 -47 85 -54 96
-177 309 -53 91 -106 183 -118 205 -12 22 -31 52 -41 67 -11 14 -19 29 -19 32
0 4 -21 43 -47 87 -79 133 -103 179 -94 179 4 0 21 11 37 25 16 14 32 25 36
25 4 0 13 6 20 13 50 48 386 237 422 237 9 0 16 4 16 9 0 5 10 11 23 14 12 3
74 24 137 47 124 45 302 91 400 105 19 3 46 7 60 10 14 3 59 8 100 11 41 4 77
8 78 10 6 5 385 -4 422 -10z m-2273 -96 c3 -11 9 -20 13 -20 4 0 10 -8 14 -17
3 -10 13 -31 23 -48 10 -16 65 -111 122 -210 57 -99 124 -213 148 -253 23 -40
43 -75 43 -78 0 -2 11 -21 24 -42 24 -39 201 -345 244 -422 13 -25 31 -52 38
-61 8 -8 14 -23 14 -32 0 -9 3 -17 8 -17 4 0 18 -21 32 -47 13 -27 27 -50 30
-53 3 -3 15 -23 27 -45 49 -93 66 -121 78 -135 8 -8 14 -18 14 -23 0 -4 7 -17
15 -30 53 -85 236 -409 236 -417 0 -5 5 -10 10 -10 6 0 10 -4 10 -10 0 -5 14
-33 31 -62 31 -52 50 -85 87 -150 11 -18 69 -119 130 -225 62 -105 112 -196
112 -202 0 -5 4 -11 8 -13 7 -3 120 -194 131 -223 2 -5 7 -12 10 -15 3 -3 15
-21 25 -40 10 -19 35 -62 54 -95 19 -33 42 -73 52 -90 117 -202 217 -376 229
-400 9 -16 19 -31 24 -33 4 -2 7 -8 7 -13 0 -5 27 -54 60 -110 33 -55 60 -103
60 -105 0 -3 16 -30 35 -60 19 -30 35 -56 35 -59 0 -3 17 -33 38 -67 21 -35
56 -94 77 -133 21 -38 41 -72 44 -75 4 -3 12 -16 18 -30 7 -14 25 -47 41 -75
146 -251 200 -345 206 -357 3 -7 14 -26 25 -43 10 -16 27 -46 38 -65 11 -19
46 -80 78 -135 32 -55 80 -138 107 -185 26 -47 53 -92 58 -100 17 -28 73 -125
98 -170 13 -25 39 -70 57 -100 18 -30 68 -116 110 -190 68 -118 148 -257 205
-355 9 -16 51 -88 92 -160 42 -71 85 -146 96 -165 11 -19 43 -75 71 -123 28
-49 51 -93 51 -98 0 -5 5 -9 10 -9 6 0 10 -6 10 -14 0 -8 6 -21 13 -28 7 -7
18 -24 24 -38 15 -31 66 -121 88 -154 l16 -24 -135 0 -136 1 -61 106 c-72 123
-211 360 -281 478 -26 44 -54 92 -61 105 -16 30 -155 265 -176 298 -8 14 -16
27 -16 30 0 3 -8 16 -17 30 -44 68 -98 161 -98 170 0 6 -4 10 -10 10 -5 0 -9
3 -8 8 1 4 -5 18 -14 32 -41 65 -188 322 -188 330 0 6 -4 10 -10 10 -5 0 -10
7 -10 15 0 8 -4 15 -10 15 -5 0 -10 6 -10 14 0 7 -9 25 -21 40 -11 14 -17 26
-12 26 4 0 3 4 -3 8 -9 6 -52 78 -184 307 -10 17 -48 82 -85 145 -67 113 -188
319 -279 475 -25 44 -50 87 -55 95 -21 33 -204 346 -252 430 -8 14 -16 27 -19
30 -9 9 -51 85 -57 103 -3 9 -9 17 -14 17 -5 0 -9 4 -9 9 0 5 -33 65 -73 133
-41 67 -84 143 -98 168 -13 25 -27 47 -30 50 -3 3 -22 34 -42 70 -20 36 -49
85 -63 110 -15 25 -35 59 -44 75 -32 56 -140 240 -150 255 -5 8 -21 35 -35 60
-27 48 -43 77 -90 155 -17 27 -34 57 -40 67 -98 170 -200 340 -207 344 -4 3
-6 10 -3 15 4 5 1 9 -4 9 -6 0 -11 4 -11 9 0 4 -50 93 -112 197 -61 104 -125
212 -140 239 -16 28 -33 57 -38 65 -20 33 -131 220 -148 252 -11 18 -49 83
-86 145 -36 61 -66 116 -66 122 0 5 -4 11 -8 13 -4 2 -21 26 -36 53 -64 113
-81 142 -113 192 -18 29 -33 57 -33 63 0 25 -32 19 -94 -16 l-65 -38 21 -35
c12 -20 27 -45 32 -55 6 -11 15 -25 19 -30 4 -6 89 -150 189 -321 99 -170 189
-322 200 -337 11 -16 16 -28 12 -28 -4 0 0 -8 8 -17 8 -10 30 -45 48 -78 19
-33 37 -61 42 -63 4 -2 8 -12 8 -23 0 -10 3 -19 8 -19 4 0 19 -21 32 -47 14
-27 28 -49 33 -51 4 -2 7 -10 7 -18 0 -8 5 -14 11 -14 5 0 8 -4 5 -9 -3 -5 1
-14 9 -21 8 -7 15 -19 15 -26 0 -8 5 -14 10 -14 6 0 10 -5 10 -10 0 -6 35 -70
78 -143 153 -258 234 -396 276 -472 11 -20 49 -82 73 -120 7 -11 22 -38 34
-60 12 -22 24 -42 28 -45 3 -3 16 -23 27 -45 12 -22 58 -102 103 -178 44 -76
81 -140 81 -143 0 -3 5 -10 10 -17 10 -11 85 -138 145 -242 66 -116 128 -221
146 -246 10 -15 19 -30 19 -33 0 -4 20 -40 45 -80 25 -41 45 -79 45 -84 0 -6
4 -12 8 -14 5 -1 21 -25 37 -53 15 -27 88 -152 161 -277 74 -125 134 -232 134
-238 0 -5 4 -10 9 -10 5 0 11 -8 14 -17 4 -10 17 -36 31 -58 14 -22 31 -51 39
-65 25 -46 42 -75 47 -80 3 -3 11 -16 18 -29 8 -13 23 -40 35 -60 11 -20 27
-47 34 -61 8 -14 23 -38 33 -55 11 -16 30 -48 42 -70 12 -22 27 -48 33 -57 27
-45 163 -277 186 -318 14 -25 57 -97 94 -160 38 -63 75 -128 83 -145 9 -16 18
-32 21 -35 3 -3 12 -16 19 -29 36 -63 52 -90 82 -141 18 -30 41 -68 50 -85 10
-16 80 -136 156 -265 75 -129 149 -255 163 -280 14 -25 27 -47 30 -50 3 -3 17
-25 30 -50 14 -25 60 -104 103 -176 43 -73 78 -134 78 -137 0 -6 -7352 -7
-7362 -1 -4 3 14 39 39 82 47 79 67 113 111 191 14 25 38 67 53 93 16 27 29
53 29 58 0 6 4 10 9 10 5 0 11 8 15 18 3 9 10 24 16 32 15 22 140 242 140 246
0 2 16 28 35 58 19 30 35 59 35 65 0 5 6 16 13 23 6 7 23 33 36 58 13 25 29
52 35 60 7 8 25 40 41 70 15 30 36 67 47 82 10 14 18 29 18 32 0 4 11 25 26
47 14 22 34 56 45 75 10 19 27 49 38 67 10 17 53 91 95 164 42 73 76 137 76
142 0 5 4 11 8 13 10 4 172 285 172 298 0 6 5 10 10 10 6 0 10 4 10 9 0 5 23
49 51 98 29 48 63 108 77 133 13 25 30 52 36 60 6 8 16 24 22 35 84 153 269
471 278 477 6 4 7 8 2 8 -5 0 -4 6 2 13 19 23 152 257 152 267 0 5 3 10 8 10
4 0 12 10 18 23 6 12 27 48 45 81 46 80 71 122 104 180 15 28 41 72 56 98 16
27 29 53 29 58 0 4 3 10 8 12 4 2 69 111 145 243 155 270 145 254 227 393 33
56 60 104 60 106 0 2 17 33 38 67 39 64 65 109 117 204 16 28 35 58 43 68 8 9
11 17 6 17 -5 0 -4 4 1 8 6 4 16 17 23 30 18 32 195 340 260 452 92 159 163
282 195 340 17 30 33 57 36 60 4 3 12 16 18 30 7 14 26 48 42 75 17 28 38 64
47 80 9 17 143 248 297 515 154 267 284 495 290 508 13 27 27 28 34 2z"/>
</g>
</svg>
